<!DOCTYPE svg PUBLIC "-//W3C//DTD SVG 1.1//EN" "http://www.w3.org/Graphics/SVG/1.1/DTD/svg11.dtd">
<!-- Uploaded to: SVG Repo, www.svgrepo.com, Transformed by: SVG Repo Mixer Tools -->
<svg height="64px" width="64px" version="1.1" id="_x32_" xmlns="http://www.w3.org/2000/svg" xmlns:xlink="http://www.w3.org/1999/xlink" viewBox="0 0 512 512" xml:space="preserve" fill="#000000">
<g id="SVGRepo_bgCarrier" stroke-width="0"/>
<g id="SVGRepo_tracerCarrier" stroke-linecap="round" stroke-linejoin="round"/>
<g id="SVGRepo_iconCarrier"> <style type="text/css"> .st0{fill:#000000;} </style> <g> <path class="st0" d="M65.84,98.563l80.867,37.22v48.028h218.582v-48.028l33.424-15.38v85.07c-5.423,0.776-9.606,5.458-9.606,11.087 c0,4.899,3.166,9.146,7.717,10.621l-8.216,54.239c-0.252,1.646,0.225,3.315,1.318,4.581c1.089,1.258,2.665,1.98,4.319,1.98h29.963 c1.654,0,3.23-0.722,4.328-1.988c1.081-1.266,1.557-2.927,1.308-4.573l-8.216-54.239c4.552-1.475,7.715-5.722,7.715-10.621 c0-5.629-4.183-10.31-9.606-11.087v-94.751l26.426-12.158c2.982-1.382,4.909-4.394,4.909-7.671c0-3.284-1.927-6.297-4.91-7.663 L273.855,3.913C268.213,1.32,262.205,0,255.998,0c-6.207,0-12.213,1.32-17.851,3.913L65.842,83.229 c-2.985,1.374-4.915,4.379-4.915,7.663C60.927,94.169,62.855,97.181,65.84,98.563z"/> <path class="st0" d="M410.518,413.569l-77.193-31.537c-12.284-5.644-20.221-18.028-20.221-31.553v-11.366 c0-5.225,0.862-10.365,2.331-14.852c0.423-0.567,42.372-57.127,48.202-112.88l0.182-1.755H148.175l0.184,1.755 c5.842,55.753,47.777,112.313,47.972,112.445c1.702,4.93,2.566,10.07,2.566,15.287v11.366c0,13.517-7.941,25.9-20.165,31.522 L101.43,413.6c-18.408,8.455-31.562,25.396-35.21,45.481L62.127,512h387.748l-4.109-53.082 C442.119,438.988,428.965,422.047,410.518,413.569z"/> </g> </g>
</svg>