<svg width="228" height="227" viewBox="0 0 228 227" fill="none" xmlns="http://www.w3.org/2000/svg">
<path id="Vector" d="M227.457 113.188L224.096 114.24L220.887 115.245L217.825 116.203L214.89 117.122L212.086 118L209.5 118.809L206.86 119.636L204.426 120.398L202.124 121.119L199.876 121.823L197.728 122.495L227.457 113.188L189.9 124.741L188.128 125.238L186.423 125.712L184.781 126.166L183.2 126.6L181.677 127.016L180.209 127.415L178.794 127.798L177.429 128.166L176.112 128.52L174.841 128.861L173.613 129.19L172.427 129.508L171.282 129.815L170.174 130.113L169.104 130.401L168.069 130.681L167.067 130.953L166.097 131.218L165.159 131.476L164.25 131.728L163.37 131.975L162.517 132.216L161.691 132.453L160.89 132.685L160.113 132.913L159.359 133.138L158.628 133.36L157.919 133.578L157.23 133.795L156.561 134.009L155.912 134.222L155.281 134.432L154.668 134.642L154.072 134.851L153.493 135.059L152.93 135.267L152.382 135.474L151.849 135.682L151.33 135.89L150.826 136.098L150.334 136.307L149.856 136.518L149.39 136.729L148.936 136.942L148.493 137.157L148.062 137.373L147.641 137.592L147.231 137.813L146.831 138.036L146.441 138.262L146.06 138.491L145.688 138.723L145.325 138.958L144.97 139.196L144.624 139.439L144.285 139.685L143.954 139.935L143.63 140.19L143.314 140.449L143.004 140.713L142.7 140.981L142.403 141.255L142.112 141.534L141.827 141.819L141.547 142.11L141.273 142.406L141.004 142.709L140.74 143.019L140.48 143.335L140.225 143.658L139.975 143.989L139.728 144.327L139.485 144.673L139.246 145.027L139.011 145.389L138.779 145.76L138.55 146.14L138.324 146.53L138.1 146.929L137.879 147.338L137.66 147.758L137.444 148.189L137.229 148.63L137.016 149.083L136.804 149.548L136.594 150.026L136.385 150.516L136.176 151.02L135.968 151.537L135.761 152.069L135.553 152.616L135.345 153.178L135.137 153.756L134.929 154.35L134.719 154.962L134.508 155.591L134.296 156.239L134.082 156.906L133.866 157.593L133.647 158.301L133.426 159.03L133.201 159.782L132.973 160.557L132.741 161.356L132.505 162.181L132.264 163.031L132.018 163.909L131.766 164.816L131.509 165.752L131.244 166.719L130.973 167.718L130.693 168.75L130.406 169.818L130.109 170.922L129.803 172.065L129.486 173.247L129.158 174.471L128.818 175.739L128.465 177.053L128.098 178.414L127.716 179.825L127.319 181.288L126.904 182.807L126.471 184.383L126.019 186.02L125.546 187.72L125.051 189.486L124.532 191.323L123.987 193.233L123.415 195.221L122.814 197.29L122.181 199.445L121.515 201.691L120.813 204.032L120.073 206.474L119.291 209.022L118.465 211.683L117.591 214.463L116.667 217.368L115.687 220.406L114.649 223.586L113.548 226.916L112.436 224.106L111.389 220.903L110.4 217.843L109.467 214.917L108.586 212.117L107.752 209.438L106.964 206.873L106.217 204.414L105.509 202.057L104.837 199.797L104.199 197.628L103.593 195.545L103.017 193.544L102.468 191.622L101.945 189.774L101.446 187.996L100.969 186.286L100.514 184.64L100.078 183.054L99.661 181.527L99.2608 180.054L98.8767 178.635L98.5076 177.266L98.1524 175.945L97.8103 174.67L97.4804 173.439L97.1618 172.25L96.8538 171.102L96.5556 169.991L96.2665 168.918L95.9859 167.88L95.7131 166.876L95.4476 165.904L95.1889 164.963L94.9363 164.052L94.6894 163.169L94.4478 162.314L94.2109 161.486L93.9784 160.683L93.7498 159.904L93.5247 159.149L93.3028 158.416L93.0838 157.705L92.8672 157.014L92.6528 156.344L92.4402 155.693L92.2291 155.061L92.0193 154.446L91.8105 153.849L91.6024 153.269L91.3947 152.704L91.1872 152.155L90.9796 151.621L90.7717 151.101L90.5633 150.595L90.3541 150.103L90.1439 149.624L89.9325 149.156L89.7197 148.701L89.5052 148.258L89.2889 147.826L89.0706 147.405L88.85 146.994L88.6269 146.593L88.4012 146.202L88.1726 145.82L87.9409 145.448L87.706 145.084L87.4676 144.729L87.2256 144.381L86.9797 144.042L86.7297 143.71L86.4754 143.386L86.2167 143.069L85.9533 142.758L85.685 142.454L85.4116 142.157L85.1328 141.865L84.8485 141.579L84.5583 141.299L84.2622 141.025L83.9598 140.755L83.6509 140.491L83.3353 140.231L83.0126 139.975L82.6827 139.725L82.3453 139.478L82 139.235L81.6467 138.995L81.2849 138.76L80.9145 138.527L80.535 138.298L80.1462 138.072L79.7478 137.848L79.3394 137.627L78.9205 137.408L78.491 137.191L78.0503 136.976L77.5981 136.763L77.134 136.551L76.6575 136.341L76.1682 136.131L75.6656 135.923L75.1493 135.715L74.6187 135.507L74.0733 135.3L73.5126 135.092L72.9359 134.884L72.3428 134.675L71.7326 134.466L71.1046 134.255L70.4581 134.043L69.7925 133.829L69.1071 133.613L68.4009 133.395L67.6733 133.173L66.9234 132.949L66.1503 132.721L65.353 132.49L64.5306 132.254L63.6821 132.014L62.8064 131.768L61.9023 131.517L60.9687 131.26L60.0044 130.996L59.0079 130.725L57.978 130.446L56.9131 130.159L55.8118 129.863L54.6724 129.558L53.4932 129.242L52.2725 128.914L51.0083 128.575L49.6986 128.223L48.3413 127.858L46.9342 127.477L45.4749 127.081L43.9608 126.668L42.3894 126.237L40.7578 125.786L39.063 125.315L37.3018 124.821L35.4708 124.304L33.5666 123.762L31.5852 123.192L29.5226 122.593L27.3744 121.963L25.1362 121.3L22.8028 120.601L20.3692 119.863L17.8296 119.085L15.1781 118.262L12.4082 117.393L9.5131 116.472L6.48541 115.498L3.31721 114.464L0 113.368L2.27717 112.253L5.49188 111.2L8.56345 110.207L11.4999 109.27L14.3089 108.384L16.9974 107.547L19.572 106.755L22.0388 106.005L24.4035 105.294L26.6715 104.619L28.8478 103.979L30.9372 103.371L32.944 102.792L34.8724 102.241L36.7263 101.716L38.5093 101.215L40.2249 100.737L41.8763 100.28L43.4666 99.8425L44.9987 99.4237L46.4751 99.0222L47.8986 98.6369L49.2715 98.2666L50.5961 97.9104L51.8746 97.5673L53.109 97.2364L54.3012 96.9169L55.4531 96.6081L56.5663 96.3091L57.6426 96.0193L58.6835 95.7381L59.6905 95.4647L60.665 95.1987L61.6082 94.9394L62.5216 94.6864L63.4062 94.4391L64.2632 94.197L65.0938 93.9598L65.899 93.7269L66.6797 93.498L67.4369 93.2727L68.1715 93.0506L68.8844 92.8313L69.5764 92.6145L70.2482 92.3999L70.9007 92.1872L71.5345 91.9761L72.1503 91.7662L72.7488 91.5573L73.3306 91.3491L73.8964 91.1414L74.4466 90.9339L74.9818 90.7263L75.5027 90.5184L76.0096 90.3101L76.5031 90.1009L76.9836 89.8909L77.4516 89.6796L77.9076 89.4669L78.3519 89.2525L78.7849 89.0364L79.2071 88.8182L79.6188 88.5978L80.0204 88.3749L80.4122 88.1494L80.7946 87.921L81.1679 87.6896L81.5323 87.455L81.8883 87.2169L82.2362 86.9752L82.5761 86.7296L82.9083 86.4799L83.2333 86.226L83.5511 85.9677L83.8621 85.7046L84.1666 85.4367L84.4647 85.1637L84.7567 84.8854L85.0428 84.6015L85.3233 84.3118L85.5985 84.0162L85.8684 83.7143L86.1333 83.4059L86.3935 83.0908L86.6492 82.7688L86.9005 82.4394L87.1477 82.1026L87.3909 81.758L87.6304 81.4053L87.8664 81.0442L88.0991 80.6745L88.3287 80.2957L88.5553 79.9077L88.7792 79.5101L89.0006 79.1024L89.2196 78.6845L89.4365 78.2558L89.6516 77.816L89.8649 77.3647L90.0767 76.9016L90.2873 76.4261L90.4967 75.9378L90.7054 75.4363L90.9134 74.9211L91.1211 74.3916L91.3286 73.8474L91.5362 73.288L91.7441 72.7126L91.9527 72.1208L92.1622 71.512L92.3728 70.8854L92.5849 70.2405L92.7987 69.5764L93.0145 68.8926L93.2328 68.1881L93.4537 67.4622L93.6777 66.7141L93.9051 65.9429L94.1364 65.1476L94.3718 64.3272L94.6119 63.4808L94.8571 62.6073L95.1078 61.7056L95.3645 60.7744L95.6278 59.8125L95.8982 58.8186L96.1762 57.7914L96.4625 56.7294L96.7577 55.631L97.0626 54.4947L97.3777 53.3188L97.704 52.1014L98.0421 50.8408L98.393 49.5348L98.7575 48.1814L99.1368 46.7783L99.5317 45.3232L99.9434 43.8136L100.373 42.2469L100.822 40.6202L101.292 38.9305L101.783 37.1747L102.299 35.3495L102.839 33.4512L103.407 31.4761L104.003 29.4201L104.63 27.2789L105.291 25.048L105.987 22.7224L106.721 20.2969L107.496 17.766L108.315 15.1236L109.181 12.3634L110.097 9.47857L111.067 6.46173L112.096 3.30502L113.187 0L114.306 1.74494L115.363 4.97142L116.361 8.05407L117.302 11.001L118.192 13.8199L119.033 16.5178L119.828 19.1012L120.582 21.5763L121.296 23.9489L121.973 26.2245L122.616 28.4079L123.227 30.5041L123.808 32.5173L124.361 34.4518L124.888 36.3115L125.391 38.1L125.871 39.8209L126.329 41.4773L126.768 43.0723L127.188 44.6089L127.591 46.0897L127.978 47.5173L128.349 48.8942L128.707 50.2225L129.051 51.5046L129.382 52.7424L129.703 53.9379L130.013 55.0929L130.312 56.2092L130.603 57.2884L130.885 58.3321L131.159 59.3417L131.425 60.3187L131.685 61.2644L131.939 62.1801L132.186 63.0669L132.429 63.9261L132.666 64.7588L132.9 65.5659L133.129 66.3486L133.354 67.1076L133.577 67.844L133.796 68.5586L134.013 69.2522L134.228 69.9256L134.441 70.5796L134.652 71.2149L134.862 71.8321L135.071 72.432L135.279 73.0151L135.487 73.5821L135.694 74.1335L135.902 74.6699L136.11 75.1919L136.318 75.6999L136.527 76.1944L136.737 76.676L136.948 77.145L137.161 77.6019L137.375 78.0471L137.591 78.481L137.809 78.904L138.029 79.3166L138.252 79.7189L138.477 80.1115L138.705 80.4947L138.937 80.8686L139.171 81.2338L139.409 81.5905L139.65 81.9389L139.896 82.2794L140.145 82.6123L140.398 82.9378L140.656 83.2562L140.919 83.5678L141.187 83.8727L141.459 84.1713L141.737 84.4638L142.021 84.7504L142.31 85.0314L142.605 85.3069L142.906 85.5772L143.214 85.8426L143.529 86.1031L143.85 86.3592L144.179 86.6108L144.515 86.8583L144.859 87.1019L145.211 87.3417L145.572 87.5779L145.941 87.8109L146.319 88.0407L146.706 88.2675L147.103 88.4916L147.51 88.7132L147.927 88.9324L148.355 89.1495L148.793 89.3647L149.244 89.5781L149.706 89.7901L150.18 90.0007L150.668 90.2103L151.168 90.419L151.682 90.627L152.21 90.8347L152.753 91.0422L153.312 91.2498L153.886 91.4577L154.476 91.6663L155.084 91.8756L155.709 92.0862L156.352 92.2981L157.015 92.5117L157.697 92.7274L158.4 92.9455L159.124 93.1662L159.87 93.3899L160.64 93.6171L161.433 93.848L162.251 94.0831L163.096 94.3228L163.967 94.5675L164.866 94.8178L165.795 95.074L166.755 95.3367L167.746 95.6065L168.77 95.8839L169.83 96.1696L170.925 96.4641L172.058 96.7681L173.231 97.0824L174.445 97.4077L175.702 97.7449L177.004 98.0947L178.354 98.4582L179.753 98.8362L181.204 99.2298L182.709 99.6402L184.271 100.068L185.893 100.516L187.577 100.984L189.328 101.473L189.9 103.09V124.741L227.457 113.188L199.192 104.309L201.391 105L203.69 105.722L206.166 106.5L208.5 107.233L211.194 108.079L212.616 108.526L214 108.961C214 108.961 216.187 109.642 217.309 110L219.968 110.835L223.083 111.742L227.457 113.188Z" fill="#F3DB05"/>
</svg>
